<?xml version="1.0" encoding="UTF-8" standalone="no"?>
<!-- Created with Inkscape (http://www.inkscape.org/) -->

<svg
   width="100mm"
   height="100mm"
   id="svg3710"
   sodipodi:version="0.32"
   inkscape:version="1.1.2 (0a00cf5339, 2022-02-04)"
   sodipodi:docname="knaslogo_nofont.svg"
   inkscape:output_extension="org.inkscape.output.svg.inkscape"
   version="1.1"
   xmlns:inkscape="http://www.inkscape.org/namespaces/inkscape"
   xmlns:sodipodi="http://sodipodi.sourceforge.net/DTD/sodipodi-0.dtd"
   xmlns="http://www.w3.org/2000/svg"
   xmlns:svg="http://www.w3.org/2000/svg"
   xmlns:rdf="http://www.w3.org/1999/02/22-rdf-syntax-ns#"
   xmlns:cc="http://creativecommons.org/ns#"
   xmlns:dc="http://purl.org/dc/elements/1.1/">
  <defs
     id="defs3712">
    <path
       style="opacity:1;fill:none;fill-opacity:1;fill-rule:nonzero;stroke:none;stroke-width:1.06299;stroke-linecap:round;stroke-linejoin:round;stroke-miterlimit:4;stroke-dasharray:none;stroke-dashoffset:0;stroke-opacity:1"
       d="m -44.466403,370.62935 c 0,0 14.17323,-46.063 74.409451,-60.23622"
       id="path5618"
       sodipodi:nodetypes="cs"
       inkscape:export-filename="C:\Documents and Settings\Knas\Desktop\springfun3.png"
       inkscape:export-xdpi="300"
       inkscape:export-ydpi="300" />
    <inkscape:perspective
       sodipodi:type="inkscape:persp3d"
       inkscape:vp_x="0 : -183.04724 : 1"
       inkscape:vp_y="0 : 1000 : 0"
       inkscape:vp_z="765 : -183.04724 : 1"
       inkscape:persp3d-origin="382.5 : -348.04724 : 1"
       id="perspective3719" />
  </defs>
  <sodipodi:namedview
     inkscape:document-units="in"
     pagecolor="#ffffff"
     bordercolor="#666666"
     borderopacity="1.0"
     inkscape:pageopacity="0.0"
     inkscape:pageshadow="2"
     inkscape:zoom="0.86536039"
     inkscape:cx="374.41048"
     inkscape:cy="372.6771"
     inkscape:current-layer="layer1"
     id="namedview3714"
     showgrid="false"
     inkscape:window-width="1850"
     inkscape:window-height="1016"
     inkscape:window-x="70"
     inkscape:window-y="27"
     inkscape:window-maximized="1"
     inkscape:pagecheckerboard="0"
     units="mm"
     width="100mm" />
  <metadata
     id="metadata3716">
    <rdf:RDF>
      <cc:Work
         rdf:about="">
        <dc:format>image/svg+xml</dc:format>
        <dc:type
           rdf:resource="http://purl.org/dc/dcmitype/StillImage" />
      </cc:Work>
    </rdf:RDF>
  </metadata>
  <g
     inkscape:label="Layer 1"
     inkscape:groupmode="layer"
     id="layer1">
    <path
       sodipodi:type="arc"
       style="display:inline;fill:#ffffff;fill-opacity:1;fill-rule:nonzero;stroke:#000000;stroke-width:2.0951;stroke-linecap:round;stroke-linejoin:round;stroke-miterlimit:4;stroke-dasharray:none;stroke-dashoffset:0;stroke-opacity:1"
       id="path5612"
       sodipodi:cx="177.05031"
       sodipodi:cy="170.39165"
       sodipodi:rx="112.49245"
       sodipodi:ry="112.27467"
       d="M 289.54276,170.393 A 112.49245,112.27467 0 0 1 177.04916,282.66632 112.49245,112.27467 0 0 1 64.557861,170.39071 112.49245,112.27467 0 0 1 177.05103,58.116974 112.49245,112.27467 0 0 1 289.54276,170.39216"
       sodipodi:start="1.206293e-05"
       sodipodi:end="4.5928204e-06"
       sodipodi:open="true"
       inkscape:export-filename="C:\Documents and Settings\Knas\Desktop\springfun3.png"
       inkscape:export-xdpi="300"
       inkscape:export-ydpi="300"
       sodipodi:arc-type="arc" />
    <path
       style="display:inline;fill:#ffffff;fill-opacity:1;fill-rule:nonzero;stroke:#000000;stroke-width:6.64508;stroke-linecap:round;stroke-linejoin:round;stroke-miterlimit:4;stroke-dasharray:none;stroke-dashoffset:0;stroke-opacity:1"
       d="M 37.333608,98.679764 167.32168,236.55671 c 0,0 22.56507,-55.30936 20.82065,-43.44767 -1.74454,11.86177 72.01242,89.0261 72.01242,89.0261 l -48.42123,14.01848 107.23101,27.12719 -27.94241,-111.23807 -13.44777,56.77519 c 0,0 -117.80097,-165.52035 -122.7454,-157.47216 -4.94449,8.04812 -6.54987,35.91069 -6.54987,35.91069 L 96.281428,38.818194 Z"
       id="path3565"
       sodipodi:nodetypes="ccscccccsccc"
       inkscape:export-filename="C:\Documents and Settings\Knas\Desktop\springfun3.png"
       inkscape:export-xdpi="300"
       inkscape:export-ydpi="300" />
    <path
       style="display:inline;fill:#ffffff;fill-opacity:1;fill-rule:nonzero;stroke:#000000;stroke-width:6.64508;stroke-linecap:round;stroke-linejoin:round;stroke-miterlimit:4;stroke-dasharray:none;stroke-dashoffset:0;stroke-opacity:1"
       d="m 39.350518,264.8949 87.552572,62.5347 c 0,0 112.56767,-150.08327 225.13532,-162.59029 L 302.00836,52.276874 c 0,0 -197.42942,64.239386 -262.657842,212.618026 z"
       id="path5627"
       sodipodi:nodetypes="ccs"
       inkscape:export-filename="C:\Documents and Settings\Knas\Desktop\springfun3.png"
       inkscape:export-xdpi="300"
       inkscape:export-ydpi="300" />
    <g
       id="g6869"
       transform="matrix(22.255723,0,0,22.255723,-359.73942,-212.7367)">
      <path
         style="fill:#000000;stroke-width:0.0399833"
         d="m 28.562392,17.034232 c -0.163999,-0.08321 -0.336233,-0.3091 -0.489819,-0.642425 -0.06311,-0.13696 -0.114741,-0.255591 -0.114741,-0.263624 0,-0.03911 0.774873,-0.321698 0.787027,-0.287025 0.0077,0.02199 0.08118,0.174927 0.163266,0.339859 0.177539,0.356714 0.29642,0.429559 0.479192,0.293628 0.209177,-0.155567 0.142476,-0.559952 -0.142516,-0.864029 -0.114778,-0.122464 -0.168535,-0.140126 -0.885331,-0.290882 -0.273893,-0.05761 -0.545134,-0.129116 -0.602755,-0.158914 -0.271235,-0.140262 -0.536551,-0.566495 -0.639531,-1.027415 -0.04465,-0.19984 -0.04252,-0.250641 0.01707,-0.406674 0.07536,-0.197326 0.329867,-0.454966 0.570908,-0.577936 0.436179,-0.222522 1.015187,-0.269499 1.241264,-0.100708 0.130856,0.0977 0.43598,0.645707 0.385792,0.692891 -0.03497,0.03288 -0.589471,0.266553 -0.685814,0.289012 -0.02811,0.0066 -0.109081,-0.09604 -0.179925,-0.227983 -0.108905,-0.202832 -0.147419,-0.241727 -0.249255,-0.251721 -0.157985,-0.0155 -0.299378,0.113763 -0.299378,0.273706 0,0.157752 0.145414,0.460582 0.267144,0.556334 0.05366,0.04221 0.190933,0.0941 0.305048,0.115323 0.114116,0.02122 0.369416,0.0679 0.567333,0.103749 0.436699,0.07909 0.735551,0.216761 0.879114,0.404981 0.146899,0.192595 0.370378,0.686331 0.424159,0.937104 0.03686,0.171885 0.03319,0.235799 -0.02183,0.379873 -0.08609,0.225412 -0.358713,0.473725 -0.6945,0.63256 -0.223339,0.105645 -0.322726,0.128178 -0.606931,0.137604 -0.258898,0.0086 -0.37205,-0.0051 -0.474991,-0.05729 z"
         id="path5744" />
      <g
         id="g6861">
        <path
           style="fill:#000000;stroke-width:0.0399833"
           d="m 25.822375,18.612941 c -0.07393,-0.161049 -0.460348,-0.99253 -0.858706,-1.847734 -0.398358,-0.855205 -0.724287,-1.568338 -0.724287,-1.58474 0,-0.03341 -0.01154,-0.02551 0.68771,-0.471261 l 0.507786,-0.323704 1.341444,1.542509 c 0.737794,0.84838 1.341444,1.556154 1.341444,1.57283 0,0.01668 -0.170788,0.139599 -0.379529,0.273161 l -0.379528,0.242839 -0.220508,-0.298171 c -0.121279,-0.163994 -0.23152,-0.298171 -0.244979,-0.298171 -0.01346,0 -0.127823,0.06278 -0.254143,0.139518 l -0.229672,0.139519 0.178182,0.343226 c 0.098,0.188774 0.17201,0.348515 0.164467,0.354979 -0.01427,0.01223 -0.655114,0.42302 -0.744348,0.477138 -0.03604,0.02186 -0.09019,-0.05468 -0.185333,-0.261938 z"
           id="path5740" />
        <path
           style="fill:#ffffff;fill-opacity:1;stroke-width:0.0399833"
           d="m 26.33773,17.079412 c 0.121377,-0.07764 0.220685,-0.149811 0.220685,-0.160371 0,-0.01056 -0.167314,-0.230416 -0.37181,-0.488567 -0.28892,-0.364727 -0.655568,-0.841194 -0.771351,-1.002386 -0.0052,-0.0073 -0.04662,0.0066 -0.09199,0.03091 l -0.08248,0.04414 0.09269,0.208993 c 0.241686,0.544922 0.721115,1.508452 0.750568,1.508452 0.01815,0 0.132305,-0.06353 0.253681,-0.14117 z"
           id="path5742" />
      </g>
      <path
         style="fill:#000000;stroke-width:0.0399833"
         d="m 22.549728,19.247154 -1.389779,-1.486797 0.255867,-0.249895 c 0.140727,-0.137443 0.28033,-0.249414 0.310229,-0.248826 0.0299,5.88e-4 0.423207,0.205812 0.87402,0.456052 0.749971,0.416299 0.825514,0.449759 0.888538,0.393553 0.07559,-0.06741 0.123408,-0.0077 -0.825742,-1.030589 l -0.357028,-0.384756 0.260294,-0.260294 0.260294,-0.260294 1.404931,1.492233 1.404931,1.492233 -0.282377,0.269888 c -0.155307,0.148438 -0.299199,0.269887 -0.319761,0.269887 -0.02056,0 -0.40932,-0.217458 -0.863907,-0.48324 -0.760726,-0.444772 -0.830633,-0.47762 -0.87816,-0.412623 -0.06219,0.08505 -0.102891,0.0328 0.644482,0.82732 l 0.556819,0.591943 -0.25579,0.258084 c -0.140684,0.141946 -0.265305,0.256921 -0.276936,0.2555 -0.01163,-0.0014 -0.646547,-0.671641 -1.410925,-1.489379 z"
         id="path5738" />
      <path
         style="fill:#000000;stroke-width:0.0399833"
         d="m 20.572722,21.943625 c -0.884134,-0.629493 -1.628539,-1.165641 -1.654234,-1.191437 -0.03567,-0.03581 0.0088,-0.125011 0.188109,-0.377188 0.129154,-0.181656 0.24621,-0.347119 0.260125,-0.367697 0.01392,-0.02058 0.306985,0.162652 0.651265,0.407175 0.34428,0.244524 0.641063,0.444588 0.659517,0.444588 0.01845,0 0.05545,-0.02638 0.08221,-0.05863 0.04022,-0.04846 -0.03869,-0.169231 -0.454913,-0.696272 -0.276963,-0.350705 -0.503569,-0.652746 -0.503569,-0.671203 0,-0.01846 0.104976,-0.180708 0.233282,-0.360559 l 0.233282,-0.327001 0.569749,0.773962 c 0.313362,0.425678 0.599722,0.786331 0.636355,0.80145 0.03663,0.01512 0.507423,0.176366 1.046199,0.358326 0.538775,0.18196 1.01077,0.343669 1.048876,0.359354 0.06014,0.02475 0.04281,0.06626 -0.131242,0.314382 -0.11029,0.157225 -0.233682,0.32923 -0.274205,0.382232 l -0.07368,0.09637 -0.774672,-0.304476 c -0.42607,-0.167463 -0.804779,-0.315681 -0.841577,-0.329374 -0.04362,-0.01623 -0.08208,0.0035 -0.110514,0.05659 -0.03991,0.07457 0.01494,0.122895 0.646663,0.569692 0.37965,0.268513 0.697733,0.494094 0.706851,0.501292 0.01867,0.01474 -0.308481,0.496907 -0.446455,0.657992 l -0.08991,0.104967 z"
         id="path5736" />
    </g>
  </g>
</svg>
